<svg width="83.526367" height="18.375000" viewBox="0 0 83.5264 18.375" fill="none" xmlns="http://www.w3.org/2000/svg" xmlns:xlink="http://www.w3.org/1999/xlink">
	<desc>
			Created with Pixso.
	</desc>
	<defs/>
	<path id="Star 3" d="M8.2 2.78L7.22 5.67C7.08 6.07 6.7 6.34 6.27 6.34L3.19 6.34C2.21 6.34 1.82 7.61 2.62 8.17L5.03 9.84C5.4 10.09 5.55 10.56 5.41 10.98L4.47 13.74C4.16 14.65 5.19 15.43 5.99 14.89L8.48 13.15C8.87 12.89 9.4 12.92 9.75 13.24C11.06 14.43 14.12 17.09 14.81 16.62C15.48 16.15 13.84 12.65 13.05 11.06C12.82 10.6 12.96 10.05 13.37 9.76L15.68 8.17C16.48 7.61 16.09 6.34 15.11 6.34L12.03 6.34C11.6 6.34 11.22 6.07 11.08 5.67L10.1 2.78C9.79 1.87 8.51 1.87 8.2 2.78Z" fill="#FFA858" fill-opacity="1.000000" fill-rule="evenodd"/>
	<path id="Star 4" d="M24.38 2.92L23.5 5.65C23.36 6.06 22.98 6.34 22.55 6.34L19.68 6.34C18.71 6.34 18.3 7.58 19.09 8.15L21.41 9.84C21.76 10.09 21.91 10.55 21.77 10.96L20.89 13.69C20.59 14.61 21.64 15.38 22.43 14.81L24.75 13.12C25.1 12.86 25.57 12.86 25.92 13.12L28.25 14.81C29.03 15.38 30.08 14.61 29.78 13.69L28.9 10.96C28.76 10.55 28.91 10.09 29.26 9.84L31.58 8.15C32.37 7.58 31.96 6.34 31 6.34L28.12 6.34C27.69 6.34 27.31 6.06 27.17 5.65L26.29 2.92C25.99 2 24.68 2 24.38 2.92Z" fill="#FFA858" fill-opacity="1.000000" fill-rule="evenodd"/>
	<path id="Star 5" d="M40.58 2.78L39.59 5.67C39.45 6.07 39.07 6.34 38.65 6.34L35.57 6.34C34.59 6.34 34.19 7.61 35 8.17L37.41 9.84C37.77 10.09 37.93 10.56 37.78 10.98L36.84 13.74C36.53 14.65 37.57 15.43 38.36 14.89L40.95 13.09C41.3 12.85 41.75 12.85 42.09 13.09L44.69 14.89C45.48 15.43 46.51 14.65 46.2 13.74L45.26 10.98C45.12 10.56 45.27 10.09 45.64 9.84L48.05 8.17C48.85 7.61 48.46 6.34 47.48 6.34L44.4 6.34C43.97 6.34 43.59 6.07 43.45 5.67L42.47 2.78C42.16 1.87 40.88 1.87 40.58 2.78Z" fill="#FFA858" fill-opacity="1.000000" fill-rule="evenodd"/>
	<path id="Star 6" d="M56.76 2.92L55.87 5.65C55.74 6.06 55.35 6.34 54.92 6.34L52.05 6.34C51.08 6.34 50.68 7.58 51.46 8.15L53.78 9.84C54.14 10.09 54.28 10.55 54.15 10.96L53.26 13.69C52.96 14.61 54.02 15.38 54.8 14.81L57.12 13.12C57.47 12.86 57.95 12.86 58.3 13.12L60.62 14.81C61.4 15.38 62.46 14.61 62.16 13.69L61.27 10.96C61.14 10.55 61.28 10.09 61.64 9.84L63.96 8.15C64.74 7.58 64.34 6.34 63.37 6.34L60.5 6.34C60.07 6.34 59.68 6.06 59.55 5.65L58.66 2.92C58.36 2 57.06 2 56.76 2.92Z" fill="#FFA858" fill-opacity="1.000000" fill-rule="evenodd"/>
	<path id="Star 7" d="M72.95 2.78L71.97 5.67C71.83 6.07 71.45 6.34 71.02 6.34L67.94 6.34C66.96 6.34 66.56 7.61 67.37 8.17L69.78 9.84C70.15 10.09 70.3 10.56 70.16 10.98L69.22 13.74C68.91 14.65 69.94 15.43 70.73 14.89L73.33 13.09C73.67 12.85 74.12 12.85 74.47 13.09L77.06 14.89C77.85 15.43 78.89 14.65 78.58 13.74L77.64 10.98C77.49 10.56 77.65 10.09 78.01 9.84L80.42 8.17C81.23 7.61 80.83 6.34 79.85 6.34L76.77 6.34C76.35 6.34 75.97 6.07 75.83 5.67L74.84 2.78C74.54 1.87 73.26 1.87 72.95 2.78Z" fill="#FFA858" fill-opacity="1.000000" fill-rule="evenodd"/>
</svg>
