<svg width="49.389648" height="50.389893" viewBox="0 0 49.3896 50.3899" fill="none" xmlns="http://www.w3.org/2000/svg" xmlns:xlink="http://www.w3.org/1999/xlink">
	<desc>
			Created with Pixso.
	</desc>
	<defs/>
	<path d="M44.56 40.43C42.8 38.66 38.55 36.08 36.49 35.04C33.8 33.69 33.58 33.57 31.47 35.14C30.06 36.19 29.12 37.13 27.47 36.77C25.82 36.42 22.24 34.44 19.1 31.31C15.97 28.19 13.87 24.5 13.52 22.86C13.16 21.21 14.11 20.29 15.15 18.88C16.61 16.89 16.5 16.55 15.25 13.87C14.28 11.78 11.62 7.56 9.85 5.82C7.95 3.94 7.95 4.27 6.72 4.78C5.73 5.2 4.77 5.71 3.87 6.3C2.1 7.48 1.12 8.46 0.43 9.92C-0.26 11.39 -0.57 14.83 2.98 21.27C6.53 27.71 9.01 31.01 14.16 36.14C19.31 41.28 23.27 44.04 29.06 47.29C36.22 51.3 38.97 50.51 40.44 49.83C41.91 49.14 42.89 48.17 44.07 46.4C44.67 45.5 45.18 44.54 45.6 43.55C46.11 42.33 46.44 42.33 44.56 40.43Z" fill="#F9EAB6" fill-opacity="1.000000" fill-rule="nonzero"/>
	<path d="M39.52 28.71C37.13 27.5 36.93 27.4 35.05 28.8C33.79 29.73 32.96 30.57 31.49 30.25C30.02 29.94 26.82 28.17 24.03 25.39C21.23 22.6 19.36 19.31 19.05 17.85C18.73 16.38 19.58 15.56 20.5 14.3C21.81 12.53 21.71 12.23 20.59 9.84C19.73 7.97 17.36 4.22 15.78 2.66C14.08 0.99 14.08 1.29 12.99 1.74C12.1 2.11 11.25 2.57 10.45 3.1C8.87 4.14 7.99 5.01 7.38 6.32C6.77 7.63 6.49 10.7 9.66 16.44C12.82 22.18 15.03 25.11 19.62 29.69C24.21 34.27 27.74 36.73 32.9 39.62C39.29 43.2 41.73 42.5 43.04 41.89C44.36 41.28 45.23 40.41 46.28 38.83C46.81 38.03 47.27 37.18 47.64 36.29C48.1 35.2 48.39 35.2 46.72 33.51C45.15 31.94 41.36 29.63 39.52 28.71Z" stroke="#7EB693" stroke-opacity="1.000000" stroke-width="3.000000"/>
</svg>
