<svg width="38.582031" height="55.715790" viewBox="0 0 38.582 55.7158" fill="none" xmlns="http://www.w3.org/2000/svg" xmlns:xlink="http://www.w3.org/1999/xlink">
	<desc>
			Created with Pixso.
	</desc>
	<defs/>
	<path id="Vector" d="M1.85 41.92L19.29 41.92L36.73 41.92" stroke="#7EB693" stroke-opacity="1.000000" stroke-width="2.000000"/>
	<path id="Vector" d="M5.79 48.35L19.29 48.35L32.79 48.35" stroke="#7EB693" stroke-opacity="1.000000" stroke-width="2.000000"/>
	<path id="Vector" d="M18.79 1.35L18.79 8.35L18.79 15.35" stroke="#7EB693" stroke-opacity="1.000000" stroke-width="2.000000"/>
	<path id="Vector" d="M18.86 14.64L18.86 41.07" stroke="#7EB693" stroke-opacity="1.000000" stroke-width="2.000000"/>
	<path id="Vector" d="M29.92 4.41L18.86 15.49" stroke="#7EB693" stroke-opacity="1.000000" stroke-width="2.000000"/>
	<path id="Vector" d="M34.17 8.67L18.86 24.02" stroke="#7EB693" stroke-opacity="1.000000" stroke-width="2.000000"/>
	<path id="Vector" d="M36.73 15.49L18.86 32.54" stroke="#7EB693" stroke-opacity="1.000000" stroke-width="2.000000"/>
	<path id="Vector" d="M37.58 23.16L18.86 41.92" stroke="#7EB693" stroke-opacity="1.000000" stroke-width="2.000000"/>
	<path id="Vector" d="M37.58 31.69L27.37 41.92" stroke="#7EB693" stroke-opacity="1.000000" stroke-width="2.000000"/>
	<path id="Vector" d="M1 31.69L11.2 41.92" stroke="#7EB693" stroke-opacity="1.000000" stroke-width="2.000000"/>
	<path id="Vector" d="M8.65 4.41L18.86 15.49" stroke="#7EB693" stroke-opacity="1.000000" stroke-width="2.000000"/>
	<path id="Vector" d="M4.4 8.67L18.86 24.02" stroke="#7EB693" stroke-opacity="1.000000" stroke-width="2.000000"/>
	<path id="Vector" d="M1.85 14.64L18.86 32.54" stroke="#7EB693" stroke-opacity="1.000000" stroke-width="2.000000"/>
	<path id="Vector" d="M1 22.31L18.86 41.07" stroke="#7EB693" stroke-opacity="1.000000" stroke-width="2.000000"/>
	<path id="Vector" d="M1 35.83L1 19.88C1 9.45 9.18 1 19.29 1C29.39 1 37.58 9.45 37.58 19.88L37.58 35.83C37.58 46.26 29.39 54.71 19.29 54.71C9.18 54.71 1 46.26 1 35.83Z" stroke="#7EB693" stroke-opacity="1.000000" stroke-width="2.000000"/>
</svg>
