<svg width="106.218750" height="104.719666" viewBox="0 0 106.219 104.72" fill="none" xmlns="http://www.w3.org/2000/svg" xmlns:xlink="http://www.w3.org/1999/xlink">
	<desc>
			Created with Pixso.
	</desc>
	<defs/>
	<path id="Vector" d="M76.64 18.19C68.45 14.07 57.77 12.67 48.78 14.43C42.6 15.64 34.21 19.32 34.7 26.94C35.14 33.62 42.47 37.51 48.36 38.32C54.97 39.22 62.25 38.41 68.44 35.87C71.5 34.62 74.59 32.78 76.5 29.98C78.5 27.04 78.72 23.64 77.74 20.29C77.21 18.46 74.5 19.62 75.02 21.43C78.5 33.46 59.16 36.07 51.32 35.65C46.27 35.38 39.91 33.65 37.97 28.3C35.75 22.21 43.58 18.51 48.23 17.54C57.15 15.69 67.4 16.83 75.58 20.93C77.26 21.77 78.35 19.04 76.64 18.19Z" fill="#DDDDDD" fill-opacity="1.000000" fill-rule="nonzero"/>
	<path id="Vector" d="M75.71 20.32C69.3 22.96 62.26 23.55 55.44 24.37C53.55 24.59 53.96 27.52 55.84 27.29C62.9 26.43 70.19 25.76 76.83 23.02C78.58 22.32 77.46 19.58 75.71 20.32Z" fill="#DDDDDD" fill-opacity="1.000000" fill-rule="nonzero"/>
	<path id="Vector" d="M80.36 41.27C76.45 45.25 72.66 49.34 69.11 53.66C65.04 58.59 60.58 64.11 58.62 70.29C57.94 72.47 57.55 74.96 58.61 77.08C59.78 79.42 62.34 80.41 64.8 80.73C68.66 81.24 72.88 80.76 76.3 78.87C80.22 76.7 83.18 73.2 85.29 69.31C89.78 61 91.15 48.64 83.32 41.82C81.9 40.57 80.15 42.95 81.56 44.18C87.68 49.5 86.57 59.33 83.65 65.99C82.04 69.67 79.61 73.12 76.3 75.43C73.33 77.51 69.76 78.14 66.19 77.92C65.02 77.84 63.8 77.69 62.74 77.17C62.08 76.86 61.52 76.34 61.29 75.89C60.54 74.47 60.94 72.57 61.54 70.89C63.43 65.4 67.32 60.55 70.92 56.1C73.05 53.48 75.28 50.94 77.54 48.45C78.43 47.49 79.32 46.52 80.25 45.56C80.65 45.16 81.02 44.75 81.42 44.35C81.76 43.99 82.03 43.72 82.17 43.59C83.47 42.24 81.68 39.91 80.36 41.27Z" fill="#DDDDDD" fill-opacity="1.000000" fill-rule="nonzero"/>
	<path id="Vector" d="M81.35 43.72C79.31 49.83 76.08 55.42 73.33 61.18C72.51 62.89 75.25 63.98 76.06 62.27C78.82 56.51 82.04 50.92 84.08 44.82C84.69 43.03 81.94 41.92 81.35 43.72Z" fill="#DDDDDD" fill-opacity="1.000000" fill-rule="nonzero"/>
	<path id="Vector" d="M49.11 48.27C41.4 48.29 32.86 48.53 26 52.51C21.81 54.94 17.36 58.83 15.71 63.53C15.01 65.54 14.94 67.74 16.16 69.57C17.56 71.67 20.1 72.56 22.45 73.05C28.6 74.31 34.81 71.26 39.4 67.38C44.41 63.14 48.78 57.25 50.26 50.75C50.68 48.9 47.75 48.56 47.36 50.39C46.29 55.13 43.18 59.53 39.84 62.97C36.21 66.7 31.45 69.97 26.12 70.37C22.77 70.62 17.02 69.37 18.36 64.89C19.51 60.98 23.3 57.72 26.6 55.57C32.96 51.44 41.41 51.21 48.73 51.19C50.61 51.19 50.99 48.27 49.11 48.27Z" fill="#DDDDDD" fill-opacity="1.000000" fill-rule="nonzero"/>
	<path id="Vector" d="M46.62 49.68C42.28 53.07 37.62 55.96 33.28 59.35C31.79 60.51 33.58 62.84 35.09 61.67C39.43 58.28 44.09 55.39 48.43 52C49.94 50.83 48.13 48.51 46.62 49.68Z" fill="#DDDDDD" fill-opacity="1.000000" fill-rule="nonzero"/>
</svg>
