<svg width="13.323730" height="12.770508" viewBox="0 0 13.3237 12.7705" fill="none" xmlns="http://www.w3.org/2000/svg" xmlns:xlink="http://www.w3.org/1999/xlink">
	<desc>
			Created with Pixso.
	</desc>
	<defs/>
	<path id="Star 4" d="M5.71 0.69L4.82 3.42C4.68 3.83 4.3 4.11 3.87 4.11L1 4.11C0.03 4.11 -0.37 5.35 0.41 5.92L2.73 7.6C3.08 7.86 3.23 8.31 3.1 8.72L2.21 11.45C1.91 12.37 2.96 13.14 3.75 12.57L6.07 10.88C6.42 10.63 6.89 10.63 7.24 10.88L9.57 12.57C10.35 13.14 11.41 12.37 11.11 11.45L10.22 8.72C10.08 8.31 10.23 7.86 10.58 7.6L12.9 5.92C13.69 5.35 13.29 4.11 12.32 4.11L9.45 4.11C9.01 4.11 8.63 3.83 8.5 3.42L7.61 0.69C7.31 -0.24 6.01 -0.24 5.71 0.69Z" fill="#FFA858" fill-opacity="1.000000" fill-rule="evenodd"/>
</svg>
